<svg xmlns="http://www.w3.org/2000/svg" xmlns:xlink="http://www.w3.org/1999/xlink" aria-hidden="true" role="img" class="iconify iconify--twemoji" width="31.88" height="32" preserveAspectRatio="xMidYMid meet" viewBox="0 0 36 36">
  <path fill="#FFCC4D" d="M18 29c-6.075 0-11-4.925-11-11s4.925-11 11-11s11 4.925 11 11s-4.925 11-11 11z"/>
  <path fill="#292F33" d="M18 7c5.523 0 10 4.477 10 10s-4.477 10-10 10S8 22.523 8 17S12.477 7 18 7m0-2C11.373 5 6 10.373 6 17s5.373 12 12 12s12-5.373 12-12S24.627 5 18 5z"/>
  <path fill="#F4900C" d="M5.684 11.32c-.26 0-.52-.1-.72-.29a1.018 1.018 0 0 1-.04-1.44l1.33-1.33a1.017 1.017 0 0 1 1.44.04c.39.39.39 1.02 0 1.42l-1.33 1.33c-.2.2-.46.3-.72.3zM2 19h-2c0-.55.45-1 1-1s1 .45 1 1zM30.316 11.32c-.26 0-.52-.1-.72-.29l-1.33-1.33c-.39-.39-.39-1.02 0-1.42a1.017 1.017 0 0 1 1.44-.04l1.33 1.33c.39.39.39 1.02 0 1.42c-.2.2-.46.3-.72.3zM36 19h-2c0-.55.45-1 1-1s1 .45 1 1zM18 2c-.55 0-1-.45-1-1V0c.55 0 1 .45 1 1s.45 1 1 1zM25.97 5.02a1.003 1.003 0 0 1-.71-1.71l1.33-1.33c.39-.39 1.02-.39 1.42 0s.39 1.02 0 1.42l-1.33 1.33c-.19.19-.44.29-.71.29zM10.04 5.02a.978.978 0 0 1-.71-.29L8 3.41a.999.999 0 1 1 1.42-1.42l1.33 1.33c.39.39.39 1.02 0 1.42c-.2.2-.46.3-.72.3z"/>
</svg>
